<svg xmlns="http://www.w3.org/2000/svg" viewBox="0 0 16 16"><path d="M1.412 13.084a.425.425 0 1 1-.413.437V13.5a.418.418 0 0 1 .413-.416z" fill="#31d3ac"/><path d="M15.471 3.72a.518.518 0 1 1-.505.529v-.003a.508.508 0 0 1 .502-.514h.003V3.72z" fill="#2addaa"/><circle cx="12.759" cy="1.1" r="1.1" fill="#2adcaa"/><linearGradient id="favicon-a" gradientUnits="userSpaceOnUse" x1="7.151" y1="-63.45" x2="7.151" y2="-49.699" gradientTransform="matrix(1 0 0 -1 0 -48.599)"><stop offset="0" stop-color="#4eadb3"/><stop offset="1" stop-color="#29deaa"/></linearGradient><path d="M10.469 1.894c-.119-.737-2.819-.969-4.46-.66a8.178 8.178 0 0 0-2.751 1.032C.701 3.678.065 5.689-.013 7.178s.669 3.229 2.498 5.014c2.082 2.028 4.145 2.825 5.81 2.632s3.354-1.21 4.758-3.55c1.38-2.29 1.442-4.211 1.073-5.352a3.157 3.157 0 0 0-2.76-2.284c-1.932-.206-3.945.472-3.728 1.715.152.892.878.764 2.123.618a.797.797 0 0 1 .892.681.64.64 0 0 1 0 .062c.036.244-.238.642-.636.794-.535.209-1.255.223-1.439.622-.52 1.13.384 4.35-1.344 4.443-.577.03-1.053-.366-1.371-2.302-.119-.741-.253-1.731-.479-2.721-.336-1.487-.594-1.847-.541-2.596S5.14 3.765 6.33 3.093a6.362 6.362 0 0 1 1.838-.595c1.21-.223 2.361-.226 2.301-.604z" fill="url(#favicon-a)"/><path d="M3.258 2.266A6.31 6.31 0 0 0 .986 4.202a5.541 5.541 0 0 0-.999 2.977c-.065 1.49.666 3.229 2.495 5.014 2.082 2.028 4.163 2.825 5.813 2.632s3.351-1.21 4.758-3.55c-2.334 3.866-5.424 3.75-9.474.372-5.099-4.255-.321-9.381-.321-9.381z" fill="#299393"/><path d="M6.684 2.911S4.103 3.925 4.243 5.442c.06.621.207 1.23.437 1.811.259.675.717 2.313.853 2.861.297 1.204.797 2.724 1.615 2.798 1.07.074 1.249-1.885 1.395-3.286.071-.687.106-1.19.297-1.353a.989.989 0 0 1 .544-.268c.357-.071.737 0 1.02-.131a.819.819 0 0 0 .488-.621c.045-.247-.086-.529-.318-.919.326.553-.12.966-.465 1.142s-.785.19-1.1.324a.804.804 0 0 0-.416.297c-.152.298-.173.946-.185 1.653-.018 1.264-.051 2.727-1.085 2.813-.506.042-.892-.271-1.097-.892a7.823 7.823 0 0 1-.375-1.561c-.08-.571-.175-1.026-.247-1.487-.327-2.186-.779-2.34-.732-3.866.037-1.049 1.812-1.846 1.812-1.846z" fill="#367e87"/></svg>