<?xml version="1.0" encoding="utf-8"?>
<!-- Generator: Adobe Illustrator 22.0.1, SVG Export Plug-In . SVG Version: 6.00 Build 0)  -->
<svg version="1.1" id="Слой_1" xmlns="http://www.w3.org/2000/svg" xmlns:xlink="http://www.w3.org/1999/xlink" x="0px" y="0px"
	 viewBox="0 0 16 16" style="enable-background:new 0 0 16 16;" xml:space="preserve">
<style type="text/css">
	.st0{fill:#31D3AC;}
	.st1{fill:#2ADDAA;}
	.st2{fill:#2ADCAA;}
	.st3{fill:url(#c3_1_);}
	.st4{fill:#299393;}
	.st5{fill:#367E87;}
</style>
<title>favicon</title>
<g id="Слой_2_1_">
	<g id="c">
		<g id="cl">
			<path id="c6" class="st0" d="M1.412,13.084c0.235-0.007,0.43,0.179,0.437,0.413c0.007,0.235-0.179,0.43-0.413,0.437
				c-0.235,0.007-0.43-0.179-0.437-0.413c0-0.007,0-0.014,0-0.021l0,0C1,13.272,1.183,13.087,1.412,13.084z"/>
			<path id="c5" class="st1" d="M15.471,3.72C15.756,3.713,15.993,3.94,16,4.225s-0.22,0.523-0.505,0.529
				c-0.286,0.007-0.523-0.22-0.529-0.505c0-0.001,0-0.002,0-0.003l0,0c-0.003-0.281,0.222-0.511,0.502-0.514
				c0.001,0,0.002,0,0.003,0V3.72z"/>
			<circle id="c4" class="st2" cx="12.759" cy="1.1" r="1.1"/>
			
				<linearGradient id="c3_1_" gradientUnits="userSpaceOnUse" x1="7.1505" y1="-63.4502" x2="7.1505" y2="-49.6994" gradientTransform="matrix(1 0 0 -1 0 -48.5987)">
				<stop  offset="0" style="stop-color:#4EADB3"/>
				<stop  offset="1" style="stop-color:#29DEAA"/>
			</linearGradient>
			<path id="c3" class="st3" d="M10.469,1.894c-0.119-0.737-2.819-0.969-4.46-0.66C5.037,1.409,4.105,1.759,3.258,2.266
				C0.701,3.678,0.065,5.689-0.013,7.178s0.669,3.229,2.498,5.014c2.082,2.028,4.145,2.825,5.81,2.632s3.354-1.21,4.758-3.55
				c1.38-2.29,1.442-4.211,1.073-5.352c-0.357-1.26-1.455-2.169-2.76-2.284C9.434,3.432,7.421,4.11,7.638,5.353
				C7.79,6.245,8.516,6.117,9.761,5.971c0.434-0.056,0.832,0.248,0.892,0.681c0.001,0.021,0.001,0.042,0,0.062
				c0.036,0.244-0.238,0.642-0.636,0.794C9.482,7.717,8.762,7.731,8.578,8.13c-0.52,1.13,0.384,4.35-1.344,4.443
				c-0.577,0.03-1.053-0.366-1.371-2.302C5.744,9.53,5.61,8.54,5.384,7.55C5.048,6.063,4.79,5.703,4.843,4.954
				S5.14,3.765,6.33,3.093c0.579-0.291,1.198-0.491,1.838-0.595C9.378,2.275,10.529,2.272,10.469,1.894z"/>
			<path id="c2" class="st4" d="M3.258,2.266C2.357,2.72,1.578,3.384,0.986,4.202c-0.613,0.875-0.96,1.909-0.999,2.977
				c-0.065,1.49,0.666,3.229,2.495,5.014c2.082,2.028,4.163,2.825,5.813,2.632s3.351-1.21,4.758-3.55
				c-2.334,3.866-5.424,3.75-9.474,0.372C-1.52,7.392,3.258,2.266,3.258,2.266z"/>
			<path id="c1" class="st5" d="M6.684,2.911c0,0-2.581,1.014-2.441,2.531C4.303,6.063,4.45,6.672,4.68,7.253
				c0.259,0.675,0.717,2.313,0.853,2.861c0.297,1.204,0.797,2.724,1.615,2.798c1.07,0.074,1.249-1.885,1.395-3.286
				C8.614,8.939,8.649,8.436,8.84,8.273c0.149-0.144,0.339-0.238,0.544-0.268c0.357-0.071,0.737,0,1.02-0.131
				c0.258-0.11,0.443-0.344,0.488-0.621c0.045-0.247-0.086-0.529-0.318-0.919C10.9,6.887,10.454,7.3,10.109,7.476
				s-0.785,0.19-1.1,0.324C8.842,7.851,8.696,7.955,8.593,8.097C8.441,8.395,8.42,9.043,8.408,9.75
				c-0.018,1.264-0.051,2.727-1.085,2.813c-0.506,0.042-0.892-0.271-1.097-0.892c-0.178-0.506-0.304-1.029-0.375-1.561
				c-0.08-0.571-0.175-1.026-0.247-1.487c-0.327-2.186-0.779-2.34-0.732-3.866C4.909,3.708,6.684,2.911,6.684,2.911z"/>
		</g>
	</g>
</g>
</svg>
