<svg version="1" xmlns="http://www.w3.org/2000/svg" viewBox="0 0 180 50" style="enable-background:new 0 0 180 50">
	<style type="text/css">
		g {
			opacity: 0;
			transition: opacity 1s ease;
		}

		g:hover {
			opacity: 1;
		}
	</style>
	<path d="M102.2,6.4c-0.4-2.5-9.5-3.3-15-2.2C84,4.8,80.8,6,78,7.7c-8.6,4.7-10.8,11.5-11,16.5
			s2.2,10.9,8.4,16.9c7,6.8,13.9,9.5,19.5,8.8s11.3-4.1,16-11.9c4.6-7.7,4.9-14.2,3.6-18c-1.2-4.2-4.9-7.3-9.3-7.7
			C98.7,11.6,92,13.9,92.7,18c0.5,3,3,2.6,7.1,2.1c1.5-0.2,2.8,0.8,3,2.3c0,0.1,0,0.1,0,0.2c0.1,0.8-0.8,2.2-2.1,2.7
			c-1.8,0.7-4.2,0.7-4.8,2.1c-1.8,3.8,1.3,14.6-4.5,14.9c-1.9,0.1-3.5-1.2-4.6-7.7c-0.4-2.5-0.9-5.8-1.6-9.1c-1.1-5-2-6.2-1.8-8.7
			c0.2-2.4,1-4,5-6.3c1.9-1,4-1.7,6.2-2C98.5,7.7,102.4,7.7,102.2,6.4z" />
	<circle cx="109.9" cy="3.8" r="3.7" />
	<path d="M119,12.6c1,0,1.7,0.7,1.8,1.7c0,1-0.7,1.7-1.7,1.8c-1,0-1.7-0.7-1.8-1.7c0,0,0,0,0,0
			C117.3,13.4,118.1,12.6,119,12.6C119,12.6,119,12.6,119,12.6z" />
	<path d="M71.8,44c0.8,0,1.4,0.6,1.4,1.4c0,0.8-0.6,1.4-1.4,1.4c-0.8,0-1.4-0.6-1.4-1.4c0,0,0,0,0,0
			C70.4,44.7,71,44,71.8,44C71.8,44,71.8,44,71.8,44z" />

	<g>
		<path d="M8.378,20.613c-1.516-0.023-3.011,0.363-4.326,1.118c-1.269,0.735-2.303,1.815-2.983,3.114
		C0.343,26.237-0.025,27.788,0,29.358c-0.02,1.554,0.359,3.088,1.1,4.454c0.705,1.304,1.759,2.387,3.043,3.128
		c1.335,0.765,2.851,1.156,4.389,1.133c2.06,0.063,4.061-0.696,5.561-2.11c0.234-0.22,0.368-0.526,0.372-0.847
		c-0.014-0.448-0.23-0.865-0.588-1.134c-0.228-0.181-0.509-0.28-0.8-0.282c-0.419,0.018-0.821,0.173-1.143,0.441
		c-0.963,0.767-2.171,1.158-3.4,1.1c-1.005,0.017-1.995-0.245-2.859-0.758c-0.833-0.501-1.507-1.226-1.947-2.092
		c-0.475-0.94-0.714-1.983-0.695-3.036c-0.076-1.569,0.456-3.106,1.484-4.293c0.987-1.081,2.399-1.674,3.862-1.622
		c0.715-0.013,1.425,0.121,2.086,0.394c0.644,0.289,1.218,0.713,1.684,1.243c0.294,0.36,0.735,0.568,1.2,0.567
		c0.255,0.005,0.505-0.073,0.712-0.222c0.413-0.244,0.67-0.685,0.679-1.164c0.004-0.302-0.107-0.594-0.31-0.818
		c-1.475-1.825-3.709-2.869-6.056-2.83l0,0L8.378,20.613z M26.178,20.552c-1.003-0.006-1.994,0.208-2.905,0.627
		c-0.881,0.401-1.662,0.992-2.287,1.732v-0.6c0.115-0.753-0.402-1.456-1.155-1.571c-0.129-0.02-0.26-0.021-0.39-0.004
		c-0.421-0.027-0.834,0.122-1.142,0.41c-0.285,0.319-0.429,0.739-0.4,1.165v14.06c-0.102,0.767,0.438,1.47,1.204,1.572
		c0.113,0.015,0.228,0.016,0.341,0.003c0.426,0.033,0.847-0.115,1.159-0.408c0.275-0.324,0.413-0.743,0.386-1.167v-9.184
		c-0.036-1.1,0.473-2.148,1.36-2.8c1.046-0.735,2.308-1.1,3.585-1.037c0.675,0.016,1.347,0.089,2.009,0.219
		c0.152,0.036,0.307,0.057,0.463,0.063c0.605,0.026,1.135-0.403,1.235-1c0.026-0.103,0.036-0.21,0.032-0.316
		c-0.04-0.564-0.4-1.055-0.927-1.261c-0.802-0.372-1.682-0.544-2.565-0.5l0,0L26.178,20.552z M45.306,29.075
		c0.028-1.518-0.289-3.022-0.927-4.4c-0.578-1.233-1.501-2.271-2.658-2.989c-1.242-0.736-2.667-1.106-4.11-1.068
		c-1.511-0.024-3.001,0.362-4.31,1.118c-1.262,0.738-2.291,1.818-2.967,3.114c-0.726,1.392-1.092,2.943-1.066,4.513
		c-0.027,1.573,0.362,3.126,1.128,4.5c0.736,1.306,1.823,2.38,3.137,3.1c2.313,1.249,5.046,1.461,7.524,0.584
		c0.944-0.307,1.828-0.776,2.611-1.386c0.312-0.213,0.499-0.566,0.5-0.944c-0.012-0.423-0.217-0.817-0.557-1.069
		c-0.256-0.221-0.588-0.334-0.926-0.316c-0.37-0.008-0.731,0.115-1.02,0.347c-0.501,0.371-1.06,0.658-1.653,0.85
		c-0.62,0.222-1.273,0.338-1.932,0.345c-1.443,0.042-2.854-0.438-3.971-1.353c-1.078-0.896-1.779-2.166-1.962-3.556h11.742
		c0.379,0.014,0.747-0.128,1.02-0.392c0.266-0.26,0.411-0.619,0.4-0.991l0,0L45.306,29.075z M37.611,23.319
		c1.228-0.05,2.423,0.404,3.307,1.257c0.88,0.916,1.424,2.103,1.545,3.368h-10.29c0.187-1.293,0.814-2.483,1.775-3.368
		C34.966,23.71,36.274,23.261,37.611,23.319L37.611,23.319L37.611,23.319z M54.824,20.613c-1.525-0.017-3.025,0.38-4.342,1.149
		c-1.293,0.748-2.356,1.836-3.075,3.146c-0.749,1.362-1.133,2.895-1.112,4.45c-0.021,1.547,0.334,3.075,1.036,4.454
		c0.645,1.282,1.628,2.363,2.842,3.128c1.208,0.756,2.608,1.149,4.033,1.133c1.156,0.008,2.297-0.25,3.337-0.755
		c1.022-0.498,1.92-1.218,2.627-2.108v1.163c-0.014,0.428,0.148,0.844,0.448,1.15c0.629,0.607,1.626,0.607,2.255,0
		c0.3-0.306,0.461-0.722,0.448-1.15v-7.015c0.02-1.556-0.368-3.091-1.127-4.45c-0.723-1.302-1.779-2.388-3.06-3.146
		C57.83,20.991,56.339,20.593,54.824,20.613L54.824,20.613L54.824,20.613z M54.824,35.244c-0.988,0.012-1.958-0.256-2.8-0.773
		c-0.835-0.514-1.518-1.242-1.979-2.108c-0.491-0.923-0.74-1.955-0.724-3c-0.015-1.052,0.234-2.09,0.724-3.021
		c0.457-0.872,1.141-1.605,1.979-2.122c1.722-1.029,3.871-1.029,5.593,0c0.836,0.515,1.514,1.249,1.962,2.122
		c0.481,0.934,0.725,1.971,0.711,3.021c0.015,1.043-0.229,2.074-0.711,3c-0.451,0.867-1.129,1.596-1.962,2.108
		c-0.841,0.517-1.812,0.785-2.8,0.773l0,0H54.824z M127.317,20.552c-1.001-0.006-1.991,0.208-2.9,0.627
		c-0.881,0.401-1.663,0.992-2.287,1.732v-0.6c0.115-0.753-0.402-1.456-1.155-1.571c-0.129-0.02-0.26-0.021-0.39-0.004
		c-0.422-0.027-0.835,0.122-1.144,0.41c-0.283,0.319-0.427,0.739-0.4,1.165v14.06c-0.033,0.432,0.111,0.858,0.4,1.181
		c0.313,0.279,0.725,0.421,1.144,0.394c0.426,0.032,0.847-0.116,1.159-0.408c0.275-0.324,0.413-0.743,0.386-1.167v-9.184
		c-0.036-1.101,0.472-2.148,1.36-2.8c1.046-0.735,2.308-1.1,3.585-1.037c0.674,0.016,1.345,0.089,2.007,0.219
		c0.152,0.036,0.308,0.057,0.464,0.063c0.605,0.027,1.136-0.402,1.236-1c0.026-0.103,0.036-0.21,0.032-0.316
		c-0.04-0.564-0.401-1.055-0.928-1.261c-0.802-0.372-1.682-0.544-2.565-0.5l0,0L127.317,20.552z M146.445,29.075
		c0.028-1.518-0.289-3.022-0.927-4.4c-0.577-1.233-1.5-2.271-2.657-2.989c-1.242-0.736-2.667-1.106-4.11-1.068
		c-1.512-0.024-3.002,0.362-4.312,1.118c-1.261,0.739-2.289,1.818-2.965,3.114c-0.726,1.392-1.093,2.943-1.067,4.513
		c-0.026,1.573,0.363,3.125,1.128,4.5c0.736,1.306,1.822,2.38,3.137,3.1c2.313,1.25,5.047,1.462,7.525,0.584
		c0.944-0.307,1.827-0.776,2.61-1.386c0.313-0.213,0.5-0.566,0.5-0.944c-0.011-0.423-0.216-0.817-0.556-1.069
		c-0.257-0.22-0.589-0.333-0.927-0.316c-0.37-0.008-0.731,0.115-1.02,0.347c-0.502,0.371-1.06,0.658-1.654,0.85
		c-0.62,0.222-1.273,0.338-1.931,0.345c-1.443,0.042-2.853-0.439-3.971-1.353c-1.078-0.897-1.778-2.166-1.962-3.556h11.743
		c0.379,0.014,0.747-0.128,1.019-0.392c0.267-0.259,0.412-0.619,0.4-0.991l0,0L146.445,29.075z M138.751,23.319
		c1.227-0.051,2.422,0.404,3.306,1.257c0.881,0.916,1.425,2.103,1.546,3.368H133.31c0.189-1.293,0.817-2.482,1.778-3.368
		C136.106,23.709,137.414,23.26,138.751,23.319L138.751,23.319L138.751,23.319z M154.851,20.613c-1.054-0.007-2.1,0.174-3.09,0.535
		c-0.91,0.317-1.721,0.869-2.349,1.6c-0.606,0.733-0.926,1.662-0.9,2.613c0,2.533,1.978,4.19,5.933,4.97
		c1.139,0.159,2.239,0.527,3.245,1.084c0.582,0.334,0.945,0.949,0.957,1.62c-0.001,0.674-0.376,1.293-0.973,1.606
		c-0.84,0.445-1.785,0.652-2.734,0.6c-0.857,0.004-1.707-0.162-2.5-0.489c-0.665-0.247-1.267-0.64-1.761-1.149
		c-0.296-0.343-0.722-0.548-1.175-0.567c-0.398,0.027-0.777,0.182-1.081,0.441c-0.396,0.282-0.627,0.742-0.618,1.228
		c-0.004,0.365,0.14,0.716,0.4,0.973c0.824,0.789,1.815,1.381,2.9,1.732c1.27,0.446,2.608,0.67,3.955,0.66
		c1.234,0.032,2.462-0.2,3.6-0.678c0.921-0.385,1.71-1.03,2.27-1.856c0.513-0.778,0.782-1.692,0.773-2.624
		c0.038-1.218-0.479-2.386-1.406-3.177c-1.411-1.021-3.05-1.681-4.774-1.922c-0.853-0.161-1.689-0.397-2.5-0.706
		c-0.453-0.156-0.857-0.427-1.174-0.786c-0.214-0.309-0.323-0.679-0.31-1.055c0.005-0.597,0.364-1.134,0.913-1.367
		c0.725-0.353,1.526-0.521,2.332-0.489c0.712-0.018,1.422,0.084,2.1,0.3c0.613,0.22,1.171,0.568,1.638,1.022
		c0.388,0.38,0.909,0.595,1.452,0.6c0.309,0.013,0.613-0.076,0.866-0.253c0.316-0.227,0.51-0.587,0.526-0.976
		c-0.014-0.371-0.155-0.726-0.4-1.006c-0.669-0.813-1.536-1.441-2.517-1.822c-1.144-0.458-2.368-0.684-3.6-0.663l0,0L154.851,20.613
		z M172.558,20.581c-0.995-0.005-1.982,0.182-2.906,0.552c-0.882,0.35-1.682,0.881-2.347,1.559v-7.71
		c0.019-0.431-0.138-0.851-0.433-1.165c-0.644-0.585-1.627-0.585-2.271,0c-0.305,0.309-0.467,0.731-0.449,1.165v21.391
		c-0.013,0.428,0.149,0.844,0.449,1.15c0.635,0.607,1.636,0.607,2.271,0c0.291-0.311,0.447-0.724,0.433-1.15V27.5
		c-0.009-0.726,0.2-1.439,0.6-2.045c0.418-0.622,0.994-1.121,1.668-1.447c0.735-0.362,1.546-0.545,2.365-0.534
		c1.317-0.062,2.603,0.409,3.568,1.306c0.962,1.043,1.449,2.439,1.345,3.854v7.737c-0.013,0.428,0.148,0.844,0.448,1.15
		c0.629,0.607,1.626,0.607,2.255,0c0.3-0.306,0.462-0.722,0.449-1.15v-7.737c0.043-1.509-0.286-3.005-0.958-4.356
		c-0.595-1.16-1.519-2.118-2.657-2.755c-1.175-0.639-2.495-0.964-3.832-0.944l0,0L172.558,20.581z"
		 style="fill:#292f39" />
		<path d="M71.8,44c0.8,0,1.4,0.6,1.4,1.4c0,0.8-0.6,1.4-1.4,1.4c-0.8,0-1.4-0.6-1.4-1.4c0,0,0,0,0,0
			C70.4,44.7,71,44,71.8,44C71.8,44,71.8,44,71.8,44z"
		 style="fill:#31d3ac" />
		<path d="M119,12.6c1,0,1.7,0.7,1.8,1.7c0,1-0.7,1.7-1.7,1.8c-1,0-1.7-0.7-1.8-1.7c0,0,0,0,0,0
			C117.3,13.4,118.1,12.6,119,12.6C119,12.6,119,12.6,119,12.6z"
		 style="fill:#2addaa" />
		<circle cx="109.9" cy="3.8" r="3.7" style="fill:#2adcaa" />
		<linearGradient id="a" gradientUnits="userSpaceOnUse" x1="91" y1="50" x2="91" y2="4">
			<stop offset="0" style="stop-color:#4eadb3" />
			<stop offset="1" style="stop-color:#29deaa" />
		</linearGradient>
		<path d="M102.2,6.4c-0.4-2.5-9.5-3.3-15-2.2C84,4.8,80.8,6,78,7.7c-8.6,4.7-10.8,11.5-11,16.5
			s2.2,10.9,8.4,16.9c7,6.8,13.9,9.5,19.5,8.8s11.3-4.1,16-11.9c4.6-7.7,4.9-14.2,3.6-18c-1.2-4.2-4.9-7.3-9.3-7.7
			C98.7,11.6,92,13.9,92.7,18c0.5,3,3,2.6,7.1,2.1c1.5-0.2,2.8,0.8,3,2.3c0,0.1,0,0.1,0,0.2c0.1,0.8-0.8,2.2-2.1,2.7
			c-1.8,0.7-4.2,0.7-4.8,2.1c-1.8,3.8,1.3,14.6-4.5,14.9c-1.9,0.1-3.5-1.2-4.6-7.7c-0.4-2.5-0.9-5.8-1.6-9.1c-1.1-5-2-6.2-1.8-8.7
			c0.2-2.4,1-4,5-6.3c1.9-1,4-1.7,6.2-2C98.5,7.7,102.4,7.7,102.2,6.4z"
		 style="fill:url(#a)" />
		<path d="M78,7.7c-3,1.5-5.6,3.8-7.6,6.5c-2.1,2.9-3.2,6.4-3.4,10c-0.2,5,2.2,10.9,8.4,16.9
			c7,6.8,13.9,9.5,19.5,8.8s11.3-4.1,16-11.9c-7.8,13-18.2,12.6-31.9,1.3C61.9,24.9,78,7.7,78,7.7z"
		 style="fill:#299393" />
		<path d="M89.5,9.9c0,0-8.7,3.4-8.2,8.5c0.2,2.1,0.7,4.1,1.5,6.1c0.9,2.3,2.4,7.8,2.9,9.6
			c1,4.1,2.7,9.2,5.4,9.4c3.6,0.2,4.2-6.3,4.7-11.1c0.2-2.3,0.4-4,1-4.5c0.5-0.5,1.1-0.8,1.8-0.9c1.2-0.2,2.5,0,3.4-0.4
			c0.9-0.4,1.5-1.2,1.6-2.1c0.1-0.8-0.3-1.8-1.1-3.1c1.1,1.9-0.4,3.2-1.6,3.8c-1.3,0.6-2.6,0.6-3.7,1.1c-0.6,0.2-1.1,0.5-1.4,1
			c-0.5,1-0.6,3.2-0.6,5.6c-0.1,4.2-0.2,9.2-3.6,9.5c-1.7,0.1-3-0.9-3.7-3c-0.6-1.7-1-3.5-1.2-5.3c-0.3-1.9-0.6-3.5-0.8-5
			c-1.1-7.4-2.6-7.9-2.5-13C83.5,12.5,89.5,9.9,89.5,9.9z"
		 style="fill:#367e87" />
		<rect style="opacity: 0;" x="0" y="0" width="180" height="50" />
	</g>
</svg>